<svg width="21" height="20" viewBox="0 0 21 20" fill="none" xmlns="http://www.w3.org/2000/svg">
<path d="M19.2913 2.4961C18.7805 1.98511 18.1741 1.57975 17.5066 1.30319C16.8392 1.02662 16.1238 0.884277 15.4013 0.884277C14.6788 0.884277 13.9634 1.02662 13.2959 1.30319C12.6285 1.57975 12.022 1.98511 11.5113 2.4961L10.4513 3.5561L9.39129 2.4961C8.3596 1.46441 6.96032 0.884812 5.50129 0.884812C4.04226 0.884812 2.64298 1.46441 1.61129 2.4961C0.579599 3.5278 1.08706e-08 4.92707 0 6.3861C-1.08706e-08 7.84514 0.579599 9.24441 1.61129 10.2761L2.67129 11.3361L10.4513 19.1161L18.2313 11.3361L19.2913 10.2761C19.8023 9.76535 20.2076 9.15892 20.4842 8.49146C20.7608 7.824 20.9031 7.10859 20.9031 6.3861C20.9031 5.66362 20.7608 4.94821 20.4842 4.28075C20.2076 3.61329 19.8023 3.00686 19.2913 2.4961Z" fill="#FF7272"/>
</svg>
