<svg width="23" height="20" viewBox="0 0 23 20" fill="none" xmlns="http://www.w3.org/2000/svg">
<path d="M20.2913 2.4961C19.7805 1.98511 19.1741 1.57975 18.5066 1.30319C17.8392 1.02662 17.1238 0.884277 16.4013 0.884277C15.6788 0.884277 14.9634 1.02662 14.2959 1.30319C13.6285 1.57975 13.022 1.98511 12.5113 2.4961L11.4513 3.5561L10.3913 2.4961C9.3596 1.46441 7.96032 0.884812 6.50129 0.884812C5.04226 0.884812 3.64298 1.46441 2.61129 2.4961C1.5796 3.5278 1 4.92707 1 6.3861C1 7.84514 1.5796 9.24441 2.61129 10.2761L3.67129 11.3361L11.4513 19.1161L19.2313 11.3361L20.2913 10.2761C20.8023 9.76535 21.2076 9.15892 21.4842 8.49146C21.7608 7.824 21.9031 7.10859 21.9031 6.3861C21.9031 5.66362 21.7608 4.94821 21.4842 4.28075C21.2076 3.61329 20.8023 3.00686 20.2913 2.4961Z" fill="white" stroke="#B5B5C3" stroke-linecap="round" stroke-linejoin="round"/>
</svg>
